<?xml version="1.0" encoding="UTF-8" standalone="no"?>
<svg
   xmlns:dc="http://purl.org/dc/elements/1.1/"
   xmlns:cc="http://creativecommons.org/ns#"
   xmlns:rdf="http://www.w3.org/1999/02/22-rdf-syntax-ns#"
   xmlns:svg="http://www.w3.org/2000/svg"
   xmlns="http://www.w3.org/2000/svg"
   version="1.1"
   id="Layer_1"
   x="0px"
   y="0px"
   width="444px"
   height="123px"
   viewBox="0.000244 0 444 123"
   enable-background="new 0.000244 0 444 123"
   xml:space="preserve">
<defs
   id="defs921"><linearGradient
     id="SVGID_101_"
     gradientUnits="userSpaceOnUse"
     x1="24.787842"
     y1="-11.448242"
     x2="24.78784"
     y2="39.551758"
     gradientTransform="matrix(1,0,0,-1,8.399902,97.009766)">
			<stop
   offset="0.0604"
   style="stop-color:#53B848"
   id="stop873" />
			<stop
   offset="0.5549"
   style="stop-color:#65CCEC"
   id="stop875" />
			<stop
   offset="0.5832"
   style="stop-color:#61C3E7"
   id="stop877" />
			<stop
   offset="0.6882"
   style="stop-color:#55A7D8"
   id="stop879" />
			<stop
   offset="0.7933"
   style="stop-color:#4D92CD"
   id="stop881" />
			<stop
   offset="0.8976"
   style="stop-color:#4886C6"
   id="stop883" />
			<stop
   offset="1"
   style="stop-color:#4682C4"
   id="stop885" />
		</linearGradient><linearGradient
     id="SVGID_102_"
     gradientUnits="userSpaceOnUse"
     x1="33.918701"
     y1="-11.400391"
     x2="114.87601"
     y2="85.080841"
     gradientTransform="matrix(1,0,0,-1,8.399902,97.009766)">
			<stop
   offset="0"
   style="stop-color:#6EBE44"
   id="stop890" />
			<stop
   offset="0.0011"
   style="stop-color:#6EBE44"
   id="stop892" />
			<stop
   offset="0.2454"
   style="stop-color:#BCDA20"
   id="stop894" />
			<stop
   offset="0.4194"
   style="stop-color:#ECEB09"
   id="stop896" />
			<stop
   offset="0.5055"
   style="stop-color:#FFF200"
   id="stop898" />
			<stop
   offset="0.5783"
   style="stop-color:#FBCA08"
   id="stop900" />
			<stop
   offset="0.6794"
   style="stop-color:#F79A11"
   id="stop902" />
			<stop
   offset="0.7753"
   style="stop-color:#F47419"
   id="stop904" />
			<stop
   offset="0.8635"
   style="stop-color:#F1581F"
   id="stop906" />
			<stop
   offset="0.9411"
   style="stop-color:#F04822"
   id="stop908" />
			<stop
   offset="1"
   style="stop-color:#EF4223"
   id="stop910" />
		</linearGradient><linearGradient
     id="SVGID_99_"
     gradientUnits="userSpaceOnUse"
     x1="46.454346"
     y1="-11.449219"
     x2="46.454342"
     y2="39.551758"
     gradientTransform="matrix(1,0,0,-1,8.399902,97.009766)">
			<stop
   offset="0.0604"
   style="stop-color:#53B848"
   id="stop829" />
			<stop
   offset="0.5549"
   style="stop-color:#65CCEC"
   id="stop831" />
			<stop
   offset="0.5832"
   style="stop-color:#61C3E7"
   id="stop833" />
			<stop
   offset="0.6882"
   style="stop-color:#55A7D8"
   id="stop835" />
			<stop
   offset="0.7933"
   style="stop-color:#4D92CD"
   id="stop837" />
			<stop
   offset="0.8976"
   style="stop-color:#4886C6"
   id="stop839" />
			<stop
   offset="1"
   style="stop-color:#4682C4"
   id="stop841" />
		</linearGradient><linearGradient
     id="SVGID_100_"
     gradientUnits="userSpaceOnUse"
     x1="55.585205"
     y1="-11.400879"
     x2="136.54318"
     y2="85.08107"
     gradientTransform="matrix(1,0,0,-1,8.399902,97.009766)">
			<stop
   offset="0"
   style="stop-color:#6EBE44"
   id="stop846" />
			<stop
   offset="0.0011"
   style="stop-color:#6EBE44"
   id="stop848" />
			<stop
   offset="0.2454"
   style="stop-color:#BCDA20"
   id="stop850" />
			<stop
   offset="0.4194"
   style="stop-color:#ECEB09"
   id="stop852" />
			<stop
   offset="0.5055"
   style="stop-color:#FFF200"
   id="stop854" />
			<stop
   offset="0.5783"
   style="stop-color:#FBCA08"
   id="stop856" />
			<stop
   offset="0.6794"
   style="stop-color:#F79A11"
   id="stop858" />
			<stop
   offset="0.7753"
   style="stop-color:#F47419"
   id="stop860" />
			<stop
   offset="0.8635"
   style="stop-color:#F1581F"
   id="stop862" />
			<stop
   offset="0.9411"
   style="stop-color:#F04822"
   id="stop864" />
			<stop
   offset="1"
   style="stop-color:#EF4223"
   id="stop866" />
		</linearGradient></defs>
<path
   id="path804"
   style="fill:#767273;fill-opacity:1"
   d="M 156.5 36.90625 C 156.78321 37.332031 156.95289 37.864746 156.96289 38.515625 L 158.29102 94.777344 C 158.43653 96.371094 158.89258 97.652344 159.58789 98.695312 L 162.27148 102.72656 C 161.57812 101.68359 161.1211 100.40039 160.97461 98.808594 L 159.64648 42.544922 C 159.63672 41.895019 159.46777 41.361328 159.18359 40.935547 L 156.5 36.90625 z M 416.15625 37.003906 C 416.44043 37.430175 416.61109 37.963867 416.62109 38.615234 L 417.94922 94.867188 C 418.09277 96.46289 418.54883 97.747071 419.24219 98.791016 L 421.92578 102.82031 C 421.23144 101.77734 420.77538 100.49414 420.63281 98.898438 L 420.63281 98.896484 L 419.30664 42.644531 C 419.29687 41.993652 419.12402 41.458984 418.83984 41.033203 L 416.15625 37.003906 z M 371.74219 37.109375 C 371.97267 37.45459 372.04493 37.853516 371.88477 38.316406 L 367.39453 49.767578 C 367.03808 50.933593 366.44726 51.640624 365.84961 51.640625 C 365.53222 51.640625 365.21192 51.442871 364.92383 51.009766 L 367.60742 55.039062 C 367.8955 55.472167 368.21582 55.669922 368.53125 55.669922 C 369.13086 55.669922 369.72168 54.963867 370.07617 53.796875 L 370.07617 53.794922 L 374.56836 42.347656 C 374.72852 41.884277 374.6543 41.484375 374.42578 41.140625 L 371.74219 37.109375 z M 359.58008 38.175781 C 355.50294 38.175781 351.4541 38.849121 347.84766 39.998047 C 334.10644 44.38379 325.39453 51.879882 319.65039 64.677734 C 314.40918 76.166992 316.47265 88.523437 319.99414 93.814453 L 322.67969 97.84375 C 319.15625 92.554688 317.09277 80.198242 322.33398 68.708984 C 328.07714 55.910156 336.79004 48.413574 350.53125 44.027344 C 354.13867 42.878419 358.18555 42.207031 362.26367 42.207031 C 362.90723 42.207031 363.55372 42.223143 364.19727 42.257812 C 364.70899 42.287109 365.10547 42.576172 365.41406 43.039062 L 362.73047 39.009766 C 362.42285 38.546875 362.02441 38.255373 361.51367 38.226562 C 360.86914 38.192382 360.22461 38.175781 359.58008 38.175781 z M 214.10742 38.435547 L 216.75781 80.076172 L 219.43945 84.105469 L 216.79297 42.464844 L 214.10742 38.435547 z M 269.55469 38.521484 C 269.72071 38.770508 269.35547 39.116699 267.6582 39.560547 C 264.55469 40.368652 262.00977 40.063477 260.99414 44.107422 L 263.67969 48.136719 C 264.69531 44.092286 267.23926 44.397949 270.34375 43.589844 C 272.04297 43.145996 272.40429 42.799804 272.23828 42.550781 L 269.55469 38.521484 z M 260.99414 44.107422 L 248.76367 93.214844 L 248.76367 93.216797 C 248.30468 95.199219 248.74999 97.058595 249.7832 98.609375 L 252.4668 102.64062 C 251.43259 101.0879 250.98633 99.228516 251.44531 97.246094 L 263.67773 48.136719 L 260.99414 44.107422 z M 310.96484 38.533203 C 311.47168 39.293945 311.19727 40.587402 309.19531 40.763672 C 306.1377 41.032715 302.9414 43.208496 302.18945 45.814453 L 287.93359 95.09375 C 287.59375 96.381836 287.88282 98.094727 288.84961 99.546875 L 291.5332 103.57617 C 290.56546 102.12402 290.27832 100.41309 290.61914 99.125 L 304.87305 49.84375 C 305.62403 47.237793 308.82227 45.062989 311.88086 44.792969 C 313.88282 44.617188 314.15722 43.32373 313.65039 42.5625 L 310.96484 38.533203 z M 279.05273 39.410156 L 281.73633 43.439453 C 281.82422 43.571288 281.94727 43.6626 282.11133 43.6875 C 284.50684 44.246582 286.71875 45.166504 287.73242 46.689453 L 285.05078 42.660156 C 284.03711 41.136718 281.82226 40.216797 279.42773 39.658203 C 279.26367 39.631836 279.13963 39.541015 279.05273 39.410156 z M 187.15039 39.585938 L 189.83594 43.617188 C 189.94239 43.77881 190.12598 43.901855 190.37305 43.921875 L 194.97656 44.855469 C 195.71679 45.032715 196.31641 45.500977 196.72656 46.117188 L 194.04492 42.087891 C 193.63476 41.472168 193.0332 41.00293 192.29297 40.826172 L 187.6875 39.892578 C 187.44043 39.873535 187.25781 39.749023 187.15039 39.585938 z M 242.51172 51.982422 C 242.24511 51.982422 241.95899 52.161621 241.77539 52.529297 L 208.28125 101.13477 C 207.35254 102.62989 205.89452 103.62109 204.60156 103.62109 C 203.85839 103.62109 203.16992 103.292 202.66992 102.54102 L 205.35547 106.57227 C 205.85449 107.32227 206.54297 107.65039 207.28711 107.65039 C 208.5791 107.65039 210.03711 106.65918 210.96484 105.16406 L 244.46094 56.558594 C 244.64356 56.19043 244.92676 56.011719 245.19336 56.011719 C 245.39356 56.011719 245.58398 56.112305 245.71484 56.308594 L 243.03125 52.277344 C 242.90039 52.081543 242.71093 51.981445 242.51172 51.982422 z M 197.41602 53.113281 C 197.05176 53.113281 196.68946 53.337402 196.48633 53.894531 L 184.99805 89.845703 C 184.05762 92.579101 183.99121 95.247069 185.11133 97.179688 C 185.1914 97.322266 185.27835 97.46875 185.37695 97.615234 L 188.0625 101.64453 C 187.96484 101.49707 187.87502 101.35156 187.79492 101.20898 C 186.67382 99.275395 186.74219 96.607422 187.68164 93.875 L 199.16992 57.925781 L 199.16992 57.923828 C 199.37207 57.367188 199.73633 57.142578 200.09961 57.142578 C 200.44336 57.142578 200.78808 57.342773 200.99609 57.65625 L 198.3125 53.626953 C 198.10351 53.313965 197.75977 53.112305 197.41602 53.113281 z M 142.54492 53.289062 C 142.41504 53.29004 142.27441 53.397949 142.13086 53.623047 C 137.14356 60.705079 130.27441 69.388673 125.35156 76.416016 C 125.21676 76.652344 125.19434 76.823241 125.27344 76.941406 L 127.60547 80.441406 L 123.54492 80.416016 L 114.6875 92.970703 C 113.60352 94.667969 113.81543 96.396484 114.82422 97.910156 L 117.50781 101.93945 C 116.5003 100.42623 116.28722 98.698735 117.37109 97.001953 L 117.37109 97 L 126.22656 84.445312 L 146.44531 84.570312 L 143.76367 80.541016 L 128.03711 80.443359 C 132.96084 73.416387 139.82862 64.736109 144.81445 57.654297 L 144.8125 57.652344 C 144.95703 57.427246 145.09961 57.318359 145.22852 57.318359 C 145.3252 57.318359 145.41409 57.376953 145.49219 57.494141 L 142.80664 53.464844 C 142.72852 53.348146 142.64062 53.290039 142.54492 53.289062 z M 402.20117 53.378906 C 402.07129 53.378906 401.92968 53.487793 401.78906 53.712891 C 396.79394 60.805176 389.9336 69.486328 385 76.505859 C 384.8681 76.743164 384.84963 76.914064 384.92773 77.03125 L 387.26367 80.539062 L 383.19336 80.515625 L 374.33789 93.070312 C 373.25781 94.761719 373.4707 96.487304 374.47656 97.998047 L 377.16016 102.02539 C 376.15476 100.51632 375.94308 98.792224 377.02148 97.101562 L 377.02344 97.099609 L 385.87695 84.542969 L 406.09766 84.662109 L 403.41406 80.630859 L 387.68164 80.541016 C 387.68285 80.538804 387.68237 80.53738 387.68359 80.535156 C 392.61718 73.515625 399.47851 64.833008 404.47461 57.742188 C 404.61426 57.51709 404.75489 57.408203 404.88477 57.408203 C 404.98145 57.408203 405.07324 57.46875 405.15234 57.587891 L 402.46875 53.558594 C 402.38965 53.438478 402.29887 53.378906 402.20117 53.378906 z M 370.02148 73.457031 C 370.17675 73.688476 369.9834 73.912109 369.48047 74.160156 C 364.9375 74.842773 363.1289 75.713866 362.69336 77.394531 C 360.93847 83.363281 359.3584 89.896485 356.51367 96.017578 C 355.50195 98.210937 350.73145 100.2959 349.17578 100.73633 C 344.34277 102.45606 336.31249 103.82812 328.66406 103.82812 C 322.52538 103.82813 316.63184 102.94336 312.83789 100.64648 C 308.87793 98.224613 305.82031 95.199219 303.5957 91.859375 L 306.28125 95.890625 C 308.50586 99.230468 311.56152 102.25488 315.52148 104.67578 C 319.31542 106.97461 325.20996 107.85742 331.34961 107.85742 C 338.9962 107.85742 347.02619 106.48605 351.85938 104.76562 C 351.85985 104.76549 351.86085 104.76576 351.86133 104.76562 C 352.50526 104.58354 353.69967 104.11058 354.94922 103.47461 L 357.61914 107.48242 C 357.7295 107.64648 357.92676 107.76761 358.21289 107.78711 L 368.12695 106.39453 L 365.44336 102.36328 L 355.52734 103.75781 C 355.2534 103.73818 355.06774 103.62317 354.95508 103.4707 C 356.72539 102.56902 358.60675 101.33132 359.19922 100.04688 C 362.04464 93.927367 363.62032 87.393077 365.37695 81.425781 L 365.37695 81.423828 C 365.81137 79.745317 367.62175 78.872803 372.16406 78.189453 C 372.66695 77.941406 372.85938 77.717773 372.70508 77.486328 L 370.02148 73.457031 z M 337.71094 74.105469 L 340.39453 78.134766 C 340.5996 78.44336 341.24707 78.724609 342.13086 78.818359 C 344.11036 79.185546 345.51074 79.452149 346.28711 80.619141 L 343.60156 76.587891 C 342.82324 75.420899 341.42578 75.15625 339.44531 74.789062 C 338.56249 74.693359 337.91504 74.413086 337.71094 74.105469 z M 108.78711 102.10938 C 107.83886 102.10938 106.83106 102.15625 105.78516 102.27344 L 95.880859 103.66602 C 95.589843 103.64551 95.389648 103.52539 95.279297 103.36133 L 97.964844 107.39062 C 98.074923 107.55624 98.272658 107.67633 98.5625 107.69727 C 98.563217 107.69732 98.563735 107.69722 98.564453 107.69727 L 108.46875 106.30469 L 108.46875 106.30273 C 109.51465 106.18552 110.52051 106.14062 111.46875 106.14062 C 114.22363 106.14062 116.4834 106.52344 117.74219 106.64453 C 122.4321 107.08553 124.4974 107.94579 124.60938 107.99219 C 124.60948 107.99223 124.61123 107.99215 124.61133 107.99219 C 124.70718 108.02304 124.79547 108.03906 124.875 108.03906 C 125.52539 108.03906 125.66406 107.04687 125.33398 106.55273 L 122.65039 102.52344 C 122.98047 103.01758 122.84081 104.01074 122.18945 104.00977 C 122.10937 104.00977 122.02148 103.99509 121.92578 103.96289 L 121.92578 103.96484 C 121.81641 103.91894 119.75195 103.05664 115.05664 102.61523 C 113.7998 102.49512 111.54297 102.10938 108.78711 102.10938 z M 368.44531 102.19922 C 367.49706 102.19922 366.49023 102.24609 365.44531 102.36328 L 368.12891 106.39258 C 369.17383 106.27537 370.18261 106.23047 371.13086 106.23047 C 373.88476 106.23047 376.14258 106.61427 377.40039 106.73438 C 382.08594 107.18556 384.15137 108.03908 384.25977 108.08398 L 384.25977 108.08203 C 384.35645 108.11523 384.44429 108.12891 384.52539 108.12891 C 385.17968 108.12891 385.32324 107.13867 384.99219 106.64062 L 382.30664 102.61133 C 382.6377 103.10742 382.49415 104.10156 381.8418 104.10156 C 381.76075 104.10156 381.67387 104.08593 381.57617 104.05273 L 381.57617 104.05469 C 381.46875 104.00879 379.40137 103.1543 374.7168 102.70508 C 373.45996 102.58496 371.20019 102.19922 368.44531 102.19922 z M 150.99805 102.58398 C 149.86231 102.58398 148.54882 102.66992 146.70898 102.86523 C 144.40527 103.10839 145.49609 103.14453 136.16797 103.55859 C 135.92285 103.57031 135.68067 103.53125 135.53125 103.30664 L 138.21484 107.33398 C 138.36524 107.55961 138.60644 107.59959 138.85156 107.58789 C 148.17871 107.17383 147.08985 107.13867 149.39258 106.89648 C 151.23243 106.70023 152.54687 106.61133 153.68164 106.61133 C 154.99511 106.61133 156.06933 106.73047 157.44336 106.93164 C 163.31543 107.80469 168.22754 107.88077 168.48633 107.88477 C 168.8027 107.78125 169.02636 107.2412 168.76367 106.8457 L 166.08008 102.81445 C 166.34277 103.20996 166.11913 103.75 165.80273 103.85547 C 165.54394 103.85156 160.62988 103.77344 154.75781 102.90234 C 153.38379 102.70019 152.31055 102.58398 150.99805 102.58398 z M 410.61328 102.67773 C 409.48828 102.67773 408.18555 102.7627 406.36719 102.95508 C 404.05469 103.19825 405.15234 103.23438 395.81445 103.64844 C 395.57421 103.66113 395.33691 103.62109 395.18945 103.39844 L 397.875 107.42773 C 398.02149 107.65043 398.25879 107.68943 398.49805 107.67773 C 407.83692 107.26366 406.7373 107.22852 409.05078 106.98633 C 410.86816 106.79293 412.17383 106.70703 413.29883 106.70703 C 414.62793 106.70703 415.70703 106.82812 417.10156 107.0332 C 422.97363 107.89548 427.88671 107.96961 428.14453 107.97461 C 428.45218 107.87012 428.68066 107.33105 428.42188 106.94141 L 425.73828 102.91211 C 425.99707 103.30078 425.76953 103.83984 425.46094 103.94531 C 425.20215 103.94141 420.28907 103.86426 414.41797 103.00195 C 413.02344 102.79688 411.94239 102.67773 410.61328 102.67773 z M 294.52539 102.76953 C 294.8125 103.19922 294.66504 103.875 294.11328 103.875 L 276.14453 103.18359 L 258.88281 103.70312 C 258.62695 103.70312 258.46189 103.61133 258.37109 103.47461 L 261.05469 107.50391 C 261.14621 107.64021 261.31183 107.73188 261.56641 107.73242 C 261.56716 107.73242 261.5676 107.73242 261.56836 107.73242 L 278.83008 107.21289 L 296.79883 107.9043 C 297.34961 107.9043 297.49511 107.23145 297.20898 106.80078 L 294.52539 102.76953 z M 193.26367 102.78516 C 193.59081 103.27734 193.29493 103.91208 192.4375 103.95508 L 180.40234 103.45312 L 170.29297 103.83008 C 169.90918 103.81055 169.66309 103.67188 169.54102 103.49023 L 172.22461 107.51953 C 172.34571 107.70215 172.59277 107.83787 172.97656 107.85938 L 183.08789 107.48242 L 195.12109 107.98438 C 195.97757 107.94141 196.27636 107.30664 195.94922 106.81445 L 193.26367 102.78516 z M 256.22461 102.98242 C 256.48731 103.37891 256.26465 103.8945 255.45508 103.9375 L 258.13867 107.9668 C 258.94825 107.92285 259.17188 107.4082 258.9082 107.01172 L 256.22461 102.98242 z M 240.55859 103.39062 L 222.46289 104 C 222.01465 104 221.71289 103.8418 221.56641 103.62305 L 224.25 107.65234 C 224.39551 107.87207 224.69727 108.0293 225.14453 108.0293 L 243.24414 107.41992 L 258.13672 107.96875 L 255.45312 103.9375 L 240.55859 103.39062 z"
   transform="translate(2.44e-4)" /><path
   id="path812"
   d="m 425.52661,102.70508 c 0.55762,0.36816 0.30273,1.11328 -0.0654,1.24023 -0.25879,-0.004 -5.17187,-0.0811 -11.04297,-0.94336 -1.39453,-0.20507 -2.47558,-0.32422 -3.80469,-0.32422 -1.125,0 -2.42773,0.0859 -4.24609,0.27832 -2.3125,0.24317 -1.21484,0.27832 -10.55273,0.69239 -0.34864,0.0176 -0.6875,-0.0742 -0.7627,-0.67383 0.082,-0.69238 1.12598,-1.0166 1.4502,-1.11523 3.73339,-1.02442 5.57128,-2.902349 6.39062,-7.486333 0.88184,-5.033203 0.6377,-9.320313 0.52051,-13.742188 l -20.21973,-0.117188 -8.85449,12.556641 c -2.61621,4.098633 2.34961,8.384768 7.82422,9.382818 0.50293,0.39648 0.41113,1.64843 -0.32129,1.64843 -0.0811,0 -0.16894,-0.0156 -0.2666,-0.0488 -0.10742,-0.0449 -2.17383,-0.89844 -6.8584,-1.34864 -1.25781,-0.12011 -3.51758,-0.50488 -6.27148,-0.50488 -0.94825,0 -1.95606,0.0459 -3.00098,0.16211 l -9.91504,1.39453 c -0.92578,-0.0625 -0.92383,-1.17774 0.003,-1.42969 4.79492,-0.62012 10.52148,-4.161132 13.89551,-8.952147 l 40.29004,-56.189941 c 0.66504,-0.969238 2.08691,-1.53125 3.46972,-1.53125 1.73438,0 3.4043,0.884277 3.43555,2.958984 l 1.32715,56.254395 c 0.42187,4.728516 3.59375,6.714849 7.57617,7.838869 z M 397.68286,77.228516 c 2.05762,0 3.9961,0.01074 5.43945,0.04102 l -0.52246,-23.430664 c -0.10351,-0.303711 -0.24316,-0.459961 -0.39844,-0.459961 -0.12988,0 -0.2705,0.108887 -0.41113,0.333984 -4.99512,7.091309 -11.85547,15.773438 -16.79004,22.791992 -0.30664,0.557617 -9.7e-4,0.746094 0.74512,0.746094 0.14648,0.01269 0.71875,0.0166 1.58008,0.0166 1.04785,0 2.52637,-0.0068 4.19433,-0.0166 1.92383,-0.01172 4.10352,-0.02246 6.16309,-0.02246 M 359.15259,34.660156 c 3.12304,0 6.18554,0.258789 9.12988,0.807617 1.87012,0.376953 4.16211,1.231445 3.60254,2.849121 l -4.49121,11.450195 c -0.35547,1.166992 -0.94629,1.873047 -1.54492,1.873047 -0.83106,0 -1.67871,-1.363281 -1.94043,-4.749023 -0.14746,-1.852051 0.15136,-8.520996 -2.39356,-8.664063 -0.64453,-0.03516 -1.28906,-0.05127 -1.93359,-0.05127 -4.07715,0 -8.12696,0.67334 -11.7334,1.822266 -13.74121,4.385742 -22.45313,11.880859 -28.19727,24.679688 -5.61718,12.313477 -2.84472,25.624023 1.12305,30.163086 2.70313,3.092773 9.02344,5.22754 13.87891,5.22754 2.85351,0 5.20019,-0.737306 6.01172,-2.450196 2.6289,-6.318359 3.90332,-14.066406 3.6582,-17.607422 0.008,-4.295898 -1.67481,-4.628906 -4.87598,-5.22168 -2.24512,-0.239258 -2.96484,-1.693359 1.22852,-1.693359 0.22265,0 0.45898,0.0039 0.70996,0.01367 1.34473,-0.0078 2.65625,-0.01172 3.94531,-0.01172 2.95215,0 5.78028,0.01758 8.59278,0.0293 2.64062,0.01367 5.26464,0.02734 7.96386,0.02734 2.46875,0 5,-0.01172 7.66016,-0.04492 0.74511,0.369141 0.68164,0.682617 -0.0654,1.051758 -4.54395,0.682617 -6.35254,1.553711 -6.78711,3.235352 -1.75586,5.967773 -3.33301,12.501953 -6.17773,18.623047 -1.01172,2.192383 -5.78321,4.27832 -7.33887,4.71875 -4.83301,1.71973 -12.86426,3.09082 -20.5127,3.09082 -6.13964,0 -12.03222,-0.88379 -15.82617,-3.18066 C 298.60864,91.948243 296.0481,75.456055 301.85962,64.581055 310.47681,48.395996 336.4397,34.660156 359.15259,34.660156 Z M 165.86841,102.60547 c 0.55664,0.37695 0.3125,1.12305 -0.0654,1.25 -0.25879,-0.004 -5.17188,-0.082 -11.04395,-0.95313 -1.37402,-0.20214 -2.44824,-0.31933 -3.76074,-0.31933 -1.13574,0 -2.44922,0.0879 -4.28906,0.2832 -2.30371,0.24316 -1.21485,0.27832 -10.54199,0.69238 -0.3545,0.0176 -0.69922,-0.0742 -0.77344,-0.6748 0.083,-0.69238 1.12597,-1.02441 1.45898,-1.11426 3.72656,-1.0332 5.56445,-2.902343 6.38184,-7.486327 0.88183,-5.041992 0.64648,-9.329102 0.52832,-13.743164 l -20.21875,-0.125 -8.85547,12.555664 c -2.625,4.107422 2.34082,8.395507 7.81738,9.392577 0.50196,0.38867 0.41699,1.64648 -0.31543,1.64648 -0.0801,0 -0.16699,-0.0146 -0.26269,-0.0469 -0.10938,-0.0459 -2.17481,-0.9082 -6.87012,-1.34863 -1.25684,-0.12012 -3.51562,-0.50489 -6.27051,-0.50489 -0.94824,0 -1.95508,0.0459 -3.00098,0.16211 l -9.905268,1.39453 c -0.936523,-0.0625 -0.93457,-1.17773 0.002,-1.42968 4.786138,-0.62012 10.521488,-4.169926 13.885748,-8.951176 l 40.29004,-56.200195 c 0.66504,-0.964844 2.08789,-1.526855 3.47168,-1.526855 1.73339,0 3.40234,0.880859 3.43457,2.956055 l 1.32714,56.263184 c 0.43067,4.718751 3.59278,6.713867 7.57618,7.828127 z M 138.05395,77.12793 c 2.05079,0 3.98047,0.01074 5.41895,0.04199 L 142.9397,53.75 c -0.10157,-0.304199 -0.23828,-0.460938 -0.39453,-0.460938 -0.12891,0 -0.27149,0.109863 -0.41504,0.334961 -4.98731,7.082031 -11.85645,15.764648 -16.78028,22.791992 -0.31543,0.556641 -9.7e-4,0.746094 0.74512,0.746094 0.11914,0.0098 0.52344,0.01367 1.13867,0.01367 1.05957,0 2.74317,-0.01074 4.6709,-0.02148 1.92676,-0.01367 4.09863,-0.02637 6.14941,-0.02637 m 141.47461,-39.402831 30.42872,0.251953 c 1.43066,0 2.10156,2.533691 -0.76075,2.786133 -3.05761,0.27002 -6.25488,2.444824 -7.00683,5.050781 l -14.25586,49.278809 c -0.68848,2.616211 1.20996,6.983396 6.12012,7.352536 0.80859,0.18848 0.80664,1.42871 0.0615,1.42871 l -17.9707,-0.69043 -17.26172,0.52051 c -0.93653,0 -0.68165,-1.23926 0.11914,-1.36523 2.36621,-0.43164 9.24316,-3.100588 10.55469,-7.325197 l 15.8955,-49.197754 c 0.99512,-3.541016 -2.29297,-5.284668 -6.02441,-6.156738 -0.80859,-0.126954 -0.64453,-1.871095 0.10058,-1.934083 z m -34.19043,0.170898 22.667,0.144043 c 0.43164,0 3.54297,0.503906 -0.34571,1.52002 -3.10449,0.808105 -5.64843,0.50293 -6.66406,4.546875 L 248.76294,93.21582 c -1.01563,4.385742 2.39648,8.16992 6.80957,9.35449 0.99805,0.24414 1.05957,1.30371 -0.11914,1.36719 L 240.55884,103.38867 222.46216,104 c -1.31446,0 -1.36524,-1.36523 0.0644,-1.61621 4.22949,-0.43262 7.96777,-3.918946 8.78223,-6.778321 l 11.89648,-42.645508 c 9.8e-4,-0.644043 -0.33105,-0.979004 -0.69531,-0.979004 -0.2666,0 -0.55078,0.179199 -0.73438,0.546875 l -33.49511,48.605958 c -0.92774,1.49512 -2.3877,2.4873 -3.67969,2.4873 -1.39551,0 -2.59473,-1.15722 -2.7207,-4.08691 l -3.3711,-45.316406 c -0.0371,-0.62793 -0.56543,-1.10498 -1.09375,-1.10498 -0.36328,0 -0.72656,0.226074 -0.92969,0.782227 l -11.48828,35.950684 c -0.94043,2.732422 -1.00781,5.401367 0.11231,7.333984 1.1123,1.986328 3.97656,4.413081 7.33105,5.095701 1.30371,0.31445 1.23828,1.61719 -0.003,1.68067 l -12.03418,-0.50293 -10.10937,0.37793 c -1.1875,-0.0635 -1.05957,-1.24024 0.003,-1.43067 3.48144,-0.74511 7.47265,-4.286131 9.28125,-9.328123 l 14.88379,-47.832031 c 0.62402,-1.807129 -0.36231,-3.982422 -2.16895,-4.414063 l -4.60449,-0.934082 c -0.80859,-0.06299 -0.92383,-1.241211 0.002,-1.241211 l 26.41699,-0.214844 2.64844,41.640137 1.9375,-2.355469 25.20801,-37.396484 c 0.30859,-0.504396 1.05762,-1.68213 1.43652,-2.428224 z" /><g
   id="text822"
   style="font-size:6px;font-family:ArialMT;opacity:0.78;fill:#231f20"><path
     id="path3613"
     style="font-size:6px;font-family:ArialMT;opacity:0.78;fill:#231f20"
     d="m 438.25415,102.95898 h 0.88184 l 1.11621,2.97657 1.12207,-2.97657 h 0.88183 v 4.37403 h -0.57714 v -3.84082 l -1.12793,3 h -0.59473 l -1.12793,-3 v 3.84082 h -0.57422 z m -4.27148,0 h 3.70019 v 0.49805 h -1.55273 v 3.87598 h -0.59473 v -3.87598 h -1.55273 z" /></g>
<polygon
   fill="url(#SVGID_99_)"
   stroke="#000000"
   stroke-width="0.25"
   points="28.687744,57.458008 46.85376,57.458008 81.020752,108.45898 63.020752,108.45898"
   id="polygon844"
   style="fill:url(#SVGID_99_)" /><polygon
   fill="url(#SVGID_100_)"
   stroke="#000000"
   stroke-width="0.25"
   points="127.37524,12.291992 145.37524,12.291992 81.208252,108.45898 64.042236,108.45898"
   id="polygon869"
   style="fill:url(#SVGID_100_)" /><polygon
   fill="url(#SVGID_101_)"
   stroke="#000000"
   stroke-width="0.25"
   points="7.020752,57.458008 25.187744,57.458008 59.354736,108.45801 41.354736,108.45801"
   id="polygon888"
   style="fill:url(#SVGID_101_)" /><polygon
   fill="url(#SVGID_102_)"
   stroke="#000000"
   stroke-width="0.25"
   points="105.70825,12.291016 123.70825,12.291016 59.542236,108.45801 42.375244,108.45801"
   id="polygon913"
   style="fill:url(#SVGID_102_)" />
</svg>
